<?xml version="1.0" encoding="utf-8"?>
<!-- Generator: Adobe Illustrator 24.0.2, SVG Export Plug-In . SVG Version: 6.00 Build 0)  -->
<svg version="1.1" xmlns="http://www.w3.org/2000/svg" xmlns:xlink="http://www.w3.org/1999/xlink" x="0px" y="0px"
	 viewBox="0 0 370.07 61.39" style="enable-background:new 0 0 370.07 61.39;" xml:space="preserve">
<style type="text/css">
	.st0{fill:#374EA1;}
	.st1{display:none;}
	.st2{display:inline;fill:#374EA1;}
	.st3{fill:url(#SVGID_1_);}
</style>
<g id="Layer_1">
	<g>
		<g>
			<g>
				<path class="st0" d="M108.55,27.74c0,1.38-0.25,2.67-0.75,3.87c-0.5,1.2-1.27,2.26-2.31,3.19c-1.04,0.93-2.33,1.66-3.89,2.17
					c-1.56,0.51-3.36,0.77-5.41,0.77c-2.93,0-5.32-0.38-7.15-1.13c-1.83-0.75-3.15-1.63-3.94-2.64c-0.79-1.01-1.19-1.9-1.19-2.67
					c0-0.83,0.15-1.58,0.45-2.27c0.3-0.69,0.77-1.24,1.41-1.65c0.64-0.41,1.44-0.62,2.39-0.62c1.08,0,1.9,0.15,2.48,0.44
					c0.58,0.3,1.3,0.8,2.16,1.53c1.05,0.84,2.14,1.26,3.26,1.26c2.08,0,3.12-0.5,3.12-1.49c0-0.54-0.21-0.95-0.62-1.22
					c-0.41-0.27-0.98-0.47-1.71-0.62c-0.73-0.15-1.63-0.33-2.71-0.56c-1.66-0.4-3.19-0.91-4.59-1.54c-1.41-0.62-2.65-1.57-3.73-2.84
					c-1.08-1.27-1.61-2.92-1.61-4.96c0-1.81,0.5-3.38,1.51-4.73c1-1.34,2.42-2.36,4.23-3.06c1.82-0.7,3.88-1.05,6.18-1.05
					c2.96,0,5.26,0.32,6.91,0.95c1.65,0.63,2.77,1.35,3.36,2.16c0.59,0.81,0.89,1.55,0.89,2.23c0,1.18-0.38,2.19-1.13,3.02
					c-0.75,0.83-1.66,1.24-2.72,1.24c-0.69,0-1.21-0.03-1.59-0.1c-0.37-0.07-0.71-0.17-1.02-0.31c-0.31-0.14-0.57-0.26-0.78-0.35
					c-0.19-0.09-0.58-0.3-1.18-0.61c-0.6-0.31-1.13-0.54-1.61-0.69c-0.47-0.15-0.99-0.22-1.56-0.22c-1.68,0-2.52,0.4-2.52,1.19
					c0,0.35,0.19,0.63,0.57,0.82c0.38,0.2,0.95,0.38,1.73,0.55c0.77,0.17,1.52,0.33,2.24,0.49c0.71,0.14,1.39,0.29,2.04,0.44
					c0.65,0.15,1.27,0.31,1.87,0.47c0.6,0.16,1.23,0.38,1.9,0.67c0.67,0.28,1.23,0.59,1.68,0.92c0.5,0.34,0.95,0.78,1.37,1.3
					c0.41,0.53,0.77,1.09,1.06,1.69c0.29,0.6,0.51,1.24,0.67,1.9C108.48,26.36,108.55,27.04,108.55,27.74z"/>
				<path class="st0" d="M136.01,33.28c0,0.66-0.2,1.34-0.59,2.03c-0.39,0.69-0.95,1.27-1.67,1.74c-0.72,0.47-1.54,0.7-2.47,0.7
					c-0.95,0-1.73-0.19-2.35-0.57c-0.62-0.38-1.13-0.93-1.53-1.64c-0.4-0.72-0.83-1.72-1.28-3.02l-0.18-0.55h-7.52l-0.18,0.58
					c-0.44,1.33-0.84,2.33-1.22,3.03c-0.37,0.69-0.87,1.23-1.49,1.61c-0.62,0.38-1.42,0.57-2.39,0.57c-0.84,0-1.61-0.22-2.3-0.65
					c-0.69-0.43-1.25-0.99-1.66-1.67c-0.41-0.68-0.62-1.36-0.62-2.05c0-0.51,0.06-1,0.18-1.47c0.12-0.47,0.4-1.29,0.83-2.45
					l5.46-14.28c0.73-1.95,1.33-3.35,1.79-4.21c0.46-0.85,1-1.47,1.61-1.86c1.23-0.78,2.49-1.17,3.78-1.17c0.66,0,1.33,0.1,2,0.31
					c0.67,0.21,1.25,0.49,1.75,0.86c0.64,0.41,1.19,1.04,1.64,1.88c0.46,0.84,1.06,2.24,1.82,4.19l5.48,14.12
					c0.41,1.05,0.7,1.85,0.85,2.39C135.93,32.24,136.01,32.77,136.01,33.28z M123.17,23.02l-0.05-0.15
					c-0.3-0.94-1.62-0.94-1.93-0.01l-0.05,0.15c-0.21,0.65,0.27,1.32,0.96,1.32h0.1C122.89,24.34,123.38,23.67,123.17,23.02z"/>
				<path class="st0" d="M167.03,31.52c0,1.38-0.08,2.43-0.23,3.13c-0.15,0.7-0.46,1.29-0.92,1.75c-0.9,0.9-1.94,1.35-3.12,1.35
					c-1.22,0-2.28-0.44-3.18-1.31c-0.47-0.5-0.78-1.1-0.93-1.82c-0.15-0.72-0.22-1.75-0.22-3.1v-9.19l-2.11,9.53
					c-0.38,1.74-0.71,2.98-0.99,3.72c-0.28,0.74-0.67,1.27-1.15,1.6c-0.48,0.32-1.21,0.49-2.18,0.49c-0.78,0-1.42-0.15-1.91-0.45
					c-0.49-0.3-0.92-0.87-1.29-1.69c-0.37-0.83-0.74-2.07-1.12-3.73l-0.11-0.49c-0.27-1.17-2-0.98-2,0.23v0
					c0,1.4-0.08,2.46-0.25,3.2c-0.16,0.74-0.48,1.33-0.96,1.78c-0.88,0.83-1.9,1.24-3.09,1.24c-1.23,0-2.28-0.44-3.16-1.31
					c-0.47-0.5-0.78-1.1-0.93-1.82c-0.15-0.72-0.22-1.75-0.22-3.1V15.43c0-1.79,0.08-3.01,0.23-3.67c0.15-0.66,0.53-1.3,1.14-1.92
					c0.59-0.61,1.22-1.01,1.87-1.19c0.66-0.18,1.6-0.27,2.83-0.27c1.38,0,2.41,0.1,3.09,0.31c0.67,0.21,1.31,0.64,1.92,1.29
					c0.35,0.35,0.65,0.82,0.89,1.38c0.24,0.57,0.48,1.5,0.75,2.79l1.33,6.3c0.23,1.08,1.77,1.07,1.98-0.01l1.23-6.25
					c0.31-1.58,0.66-2.77,1.06-3.57c0.4-0.79,1.04-1.36,1.92-1.71c0.88-0.35,2.16-0.52,3.85-0.52c1.35,0,2.41,0.15,3.19,0.44
					c0.78,0.29,1.46,0.89,2.04,1.77c0.3,0.43,0.5,0.99,0.6,1.69c0.11,0.7,0.16,1.75,0.16,3.13V31.52z"/>
			</g>
			<g>
				<path class="st0" d="M196.18,25.13c0,1.05-0.04,2.05-0.12,2.99c-0.08,0.94-0.24,1.87-0.5,2.79c-0.25,0.92-0.64,1.78-1.16,2.57
					c-1.02,1.5-2.32,2.59-3.91,3.26c-1.59,0.67-3.31,1-5.17,1c-1.83,0-3.58-0.35-5.23-1.05c-1.66-0.7-3.01-1.83-4.06-3.41
					c-1.05-1.57-1.58-3.57-1.58-5.98c0-1.24,0.3-2.2,0.9-2.88c0.6-0.68,1.25-1.14,1.96-1.38c0.71-0.24,1.27-0.36,1.69-0.36
					c1,0,1.81,0.19,2.4,0.58c0.6,0.38,1.07,0.96,1.43,1.74c0.35,0.77,0.69,1.84,1.01,3.2c0.12,0.5,0.26,0.85,0.43,1.05
					c0.17,0.2,0.47,0.3,0.9,0.3c0.63,0,1.03-0.27,1.2-0.8c0.17-0.53,0.26-1.25,0.26-2.15V14.92c0-1.09,0.03-1.95,0.11-2.58
					c0.07-0.63,0.2-1.18,0.38-1.65c0.18-0.47,0.45-0.88,0.79-1.25c0.39-0.44,0.89-0.8,1.49-1.07c0.6-0.28,1.27-0.42,2-0.42
					c0.65,0,1.29,0.13,1.92,0.39c0.63,0.26,1.15,0.61,1.55,1.06c0.54,0.56,0.9,1.23,1.06,2.01c0.17,0.79,0.25,1.95,0.25,3.5V25.13z"
					/>
				<path class="st0" d="M224.59,24.41c0,1.86-0.13,3.47-0.39,4.83c-0.26,1.36-0.71,2.55-1.35,3.57c-0.77,1.22-1.72,2.2-2.85,2.95
					c-1.13,0.75-2.34,1.27-3.64,1.56c-1.29,0.3-2.66,0.44-4.09,0.44c-1.67,0-3.2-0.12-4.6-0.35c-1.4-0.24-2.75-0.74-4.04-1.51
					c-1.3-0.77-2.38-1.88-3.24-3.34c-1.04-1.76-1.56-4.43-1.56-8v-9.63c0-1.55,0.08-2.73,0.25-3.53c0.17-0.8,0.51-1.47,1.03-1.99
					c0.24-0.24,0.53-0.47,0.88-0.69c0.35-0.23,0.75-0.41,1.2-0.55c0.45-0.14,0.92-0.21,1.4-0.21c0.69,0,1.33,0.12,1.93,0.36
					c0.6,0.24,1.12,0.59,1.56,1.06c0.52,0.52,0.87,1.19,1.05,2c0.18,0.82,0.27,2,0.27,3.55v9.93c0,3.15,1.14,4.72,3.41,4.72
					c1.27,0,2.12-0.46,2.56-1.38c0.44-0.92,0.66-1.98,0.66-3.2V14.92c0-1.55,0.09-2.73,0.26-3.53c0.17-0.8,0.51-1.47,1.02-1.99
					c0.97-0.97,2.13-1.45,3.5-1.45c0.65,0,1.29,0.13,1.92,0.39c0.63,0.26,1.15,0.61,1.55,1.06c0.54,0.56,0.9,1.23,1.06,2.03
					c0.16,0.8,0.25,1.96,0.25,3.49V24.41z"/>
				<path class="st0" d="M252.93,29.64c0,1.43-0.05,2.54-0.14,3.33c-0.09,0.79-0.27,1.44-0.53,1.93c-0.26,0.5-0.67,0.99-1.22,1.49
					c-1.09,0.9-2.28,1.35-3.58,1.35c-0.89,0-1.62-0.14-2.19-0.41c-0.57-0.27-1.12-0.73-1.63-1.37c-0.51-0.64-1.17-1.65-1.96-3.03
					l-3.38-5.92c-0.51-0.9-1.89-0.54-1.89,0.5v3.6c0,1.48-0.08,2.59-0.24,3.33c-0.16,0.74-0.49,1.36-1,1.87
					c-0.95,0.95-2.05,1.42-3.3,1.42c-0.63,0-1.23-0.12-1.82-0.37c-0.59-0.25-1.09-0.6-1.52-1.05c-0.49-0.51-0.81-1.14-0.99-1.91
					c-0.17-0.76-0.26-1.86-0.26-3.29V15.94c0-1.03,0.02-1.9,0.07-2.62c0.05-0.72,0.13-1.3,0.25-1.74c0.12-0.44,0.29-0.84,0.52-1.2
					c0.22-0.36,0.55-0.72,0.98-1.1c1.08-0.9,2.28-1.35,3.6-1.35c0.86,0,1.6,0.13,2.21,0.39c0.61,0.26,1.19,0.72,1.73,1.37
					c0.54,0.65,1.17,1.61,1.88,2.89l3.41,6.16c0.51,0.91,1.9,0.56,1.9-0.49V14.6c0-1.48,0.08-2.6,0.24-3.37
					c0.16-0.77,0.49-1.4,0.99-1.9c0.92-0.92,2.03-1.38,3.32-1.38c0.6,0,1.2,0.12,1.8,0.36c0.6,0.24,1.1,0.57,1.5,0.99
					c0.5,0.47,0.84,1.1,1.01,1.89c0.18,0.79,0.27,1.92,0.27,3.41V29.64z"/>
				<path class="st0" d="M282.84,29.6c0,1.22-0.14,2.16-0.41,2.83c-0.27,0.67-0.88,1.35-1.81,2.03c-0.82,0.64-2.22,1.35-4.2,2.12
					c-1.99,0.77-4.33,1.16-7.03,1.16c-2.58,0-4.81-0.4-6.71-1.2c-1.89-0.8-3.44-1.89-4.63-3.27c-1.2-1.38-2.08-2.97-2.66-4.75
					c-0.58-1.79-0.87-3.69-0.87-5.71c0-2.12,0.36-4.14,1.08-6.08c0.72-1.94,1.79-3.59,3.21-4.97c2.64-2.54,6.33-3.81,11.09-3.81
					c2.28,0,4.21,0.27,5.8,0.82c1.58,0.55,2.81,1.23,3.68,2.03c0.87,0.81,1.49,1.63,1.87,2.47c0.38,0.85,0.57,1.58,0.57,2.19
					c0,0.97-0.39,1.78-1.18,2.42c-0.79,0.64-1.94,0.97-3.45,0.97c-1.42,0-2.64-0.51-3.65-1.53c-0.47-0.47-1.03-0.81-1.66-1.01
					c-0.63-0.2-1.49-0.3-2.56-0.3c-1.87,0-3.19,0.61-3.96,1.84c-0.8,1.22-1.21,2.81-1.21,4.77c0,1.49,0.18,2.77,0.53,3.82
					c0.35,1.06,0.93,1.88,1.73,2.46c0.8,0.58,1.86,0.87,3.18,0.87c0.72,0,1.51-0.08,2.36-0.25c0.85-0.17,1.58-0.38,2.18-0.66v-0.69
					h-1.08c-2.07,0-3.47-0.32-4.21-0.95c-0.73-0.63-1.1-1.48-1.1-2.55c0-1.11,0.33-2.04,1-2.79c0.67-0.75,1.8-1.13,3.4-1.13h5.04
					c1.27,0,2.3,0.15,3.1,0.43c0.8,0.29,1.43,0.86,1.87,1.72c0.44,0.86,0.67,2.1,0.67,3.73V29.6z"/>
			</g>
			<g>
				<path class="st0" d="M313.51,33.28c0,1.12-0.41,2.09-1.22,2.91c-0.44,0.43-1,0.72-1.69,0.88c-0.69,0.16-1.63,0.24-2.81,0.24
					h-9.63c-0.9,0-1.63-0.02-2.19-0.05c-0.56-0.04-1.04-0.1-1.44-0.2c-0.4-0.09-0.73-0.23-0.99-0.4c-0.27-0.17-0.59-0.42-0.97-0.74
					c-0.59-0.56-0.98-1.2-1.17-1.94c-0.19-0.74-0.28-1.98-0.28-3.72V15.43c0-1.31,0.03-2.28,0.1-2.89c0.06-0.62,0.19-1.1,0.36-1.46
					c0.18-0.36,0.48-0.77,0.92-1.23c0.4-0.43,0.81-0.74,1.23-0.94c0.42-0.2,0.94-0.34,1.57-0.41c0.63-0.07,1.58-0.11,2.86-0.11h9.35
					c1.28,0,2.22,0.07,2.84,0.21c0.62,0.14,1.12,0.42,1.51,0.83c0.35,0.33,0.65,0.74,0.89,1.24c0.24,0.5,0.36,1.04,0.36,1.63
					c0,1.09-0.4,2.03-1.21,2.84c-0.43,0.43-0.96,0.72-1.61,0.88c-0.65,0.16-1.57,0.24-2.77,0.24h-5.82c-0.56,0-1.01,0.45-1.01,1.01
					v0.02c0,0.56,0.45,1.01,1.01,1.01h4.93c1.25,0,2.18,0.07,2.79,0.21c0.61,0.14,1.11,0.42,1.5,0.83c0.8,0.8,1.21,1.75,1.21,2.84
					c0,1.06-0.4,2-1.21,2.8c-0.43,0.43-0.95,0.71-1.58,0.86c-0.63,0.15-1.53,0.22-2.71,0.22h-4.93c-0.56,0-1.01,0.45-1.01,1.01v1.13
					c0,0.56,0.45,1.01,1.01,1.01h6.1c1.27,0,2.23,0.08,2.88,0.23c0.66,0.15,1.19,0.44,1.59,0.87
					C313.09,31.17,313.51,32.15,313.51,33.28z"/>
				<path class="st0" d="M340.32,29.64c0,1.43-0.05,2.54-0.14,3.33c-0.1,0.79-0.27,1.44-0.53,1.93c-0.26,0.5-0.67,0.99-1.22,1.49
					c-1.09,0.9-2.28,1.35-3.58,1.35c-0.89,0-1.62-0.14-2.19-0.41c-0.57-0.27-1.12-0.73-1.63-1.37c-0.51-0.64-1.17-1.65-1.96-3.03
					l-3.38-5.92c-0.51-0.9-1.89-0.54-1.89,0.5v3.6c0,1.48-0.08,2.59-0.24,3.33c-0.16,0.74-0.49,1.36-1,1.87
					c-0.95,0.95-2.05,1.42-3.3,1.42c-0.63,0-1.23-0.12-1.82-0.37c-0.59-0.25-1.09-0.6-1.52-1.05c-0.48-0.51-0.81-1.14-0.99-1.91
					c-0.17-0.76-0.26-1.86-0.26-3.29V15.94c0-1.03,0.02-1.9,0.07-2.62c0.05-0.72,0.13-1.3,0.25-1.74c0.12-0.44,0.29-0.84,0.51-1.2
					c0.22-0.36,0.55-0.72,0.98-1.1c1.08-0.9,2.28-1.35,3.6-1.35c0.86,0,1.6,0.13,2.21,0.39c0.61,0.26,1.19,0.72,1.73,1.37
					c0.54,0.65,1.17,1.61,1.88,2.89l3.41,6.16c0.51,0.91,1.9,0.56,1.9-0.49V14.6c0-1.48,0.08-2.6,0.24-3.37
					c0.16-0.77,0.49-1.4,0.99-1.9c0.92-0.92,2.03-1.38,3.32-1.38c0.6,0,1.2,0.12,1.8,0.36c0.6,0.24,1.1,0.57,1.5,0.99
					c0.5,0.47,0.83,1.1,1.01,1.89c0.18,0.79,0.27,1.92,0.27,3.41V29.64z"/>
				<path class="st0" d="M368.56,28.22c0,1.7-0.5,3.29-1.5,4.75c-1,1.47-2.44,2.63-4.32,3.49c-1.88,0.86-4.07,1.29-6.58,1.29
					c-1.16,0-2.25-0.09-3.28-0.26c-1.03-0.17-1.96-0.42-2.79-0.75c-0.83-0.33-1.59-0.75-2.28-1.24c-0.69-0.5-1.36-1.09-2-1.79
					c-0.99-1.08-1.77-2.23-2.33-3.46c-0.56-1.23-0.95-2.45-1.16-3.67c-0.21-1.22-0.32-2.42-0.32-3.62c0-2.29,0.32-4.36,0.98-6.2
					c0.65-1.84,1.59-3.42,2.81-4.74c1.22-1.32,2.7-2.33,4.43-3.02c1.73-0.7,3.65-1.05,5.76-1.05c2.93,0,5.35,0.49,7.25,1.47
					c1.9,0.98,3.26,2.17,4.09,3.56c0.83,1.39,1.24,2.69,1.24,3.91c0,1.05-0.41,1.99-1.24,2.8c-0.83,0.82-1.87,1.22-3.12,1.22
					c-1.21,0-2.13-0.26-2.76-0.77c-0.63-0.51-1.17-1.25-1.61-2.21c-0.21-0.48-0.49-0.86-0.84-1.13c-0.35-0.27-0.76-0.45-1.24-0.54
					c-0.48-0.09-1.06-0.14-1.73-0.14c-1.8,0-2.98,0.66-3.55,1.99c-0.57,1.32-0.85,2.79-0.85,4.4v0.59c0,1.4,0.1,2.48,0.31,3.26
					c0.21,0.78,0.52,1.45,0.93,2c0.34,0.41,0.8,0.74,1.36,0.97c0.56,0.23,1.14,0.35,1.73,0.35c1.01,0,1.85-0.23,2.53-0.7
					c0.68-0.47,1.16-1.06,1.43-1.77c0.71-1.99,2.13-2.98,4.26-2.98c0.76,0,1.47,0.15,2.15,0.46c0.67,0.31,1.22,0.76,1.63,1.37
					C368.35,26.66,368.56,27.38,368.56,28.22z"/>
			</g>
		</g>
		<g>
			<path class="st0" d="M90.45,54.59v-4.78h-2.79v3.87c0,0.27-0.1,0.49-0.31,0.66s-0.45,0.25-0.73,0.25h-1.6V43.33h2.64v4.46h2.79
				v-4.46h2.64v10.35c0,0.27-0.1,0.49-0.31,0.66s-0.45,0.25-0.73,0.25H90.45z"/>
			<path class="st0" d="M102.85,54.59v-4.68l-3.06-6.58h2.76l1.43,3.45c0.04,0.09,0.08,0.19,0.1,0.31c0.03,0.12,0.06,0.23,0.09,0.33
				c0.03-0.09,0.07-0.21,0.1-0.33s0.07-0.23,0.1-0.32l1.38-3.43h2.77l-3.05,6.58v3.77c0,0.27-0.1,0.49-0.31,0.66
				s-0.45,0.25-0.73,0.25H102.85z"/>
			<path class="st0" d="M116.15,54.59c-0.29,0-0.52-0.08-0.68-0.23c-0.16-0.15-0.23-0.38-0.23-0.67V43.33h3.99
				c1.13,0,2.07,0.34,2.81,1.01c0.74,0.68,1.14,1.56,1.2,2.64c0.03,0.42,0.04,1.06,0.05,1.9s-0.01,1.51-0.05,2
				c-0.11,1.3-0.55,2.24-1.31,2.83c-0.76,0.58-1.66,0.88-2.71,0.88H116.15z M120.6,50.59c0.04-0.42,0.06-0.97,0.06-1.66
				c0-0.69-0.02-1.23-0.06-1.63c-0.03-0.48-0.18-0.93-0.45-1.33s-0.63-0.6-1.1-0.6h-1.17v7.2h1.17c0.38,0,0.72-0.17,1.01-0.5
				C120.35,51.73,120.53,51.24,120.6,50.59z"/>
			<path class="st0" d="M130.79,54.59V43.33h4.32c1.14,0,2.02,0.33,2.67,1c0.64,0.66,0.96,1.48,0.96,2.46c0,0.8-0.24,1.48-0.73,2.05
				c-0.49,0.57-0.95,0.88-1.39,0.92c0.29,0.22,0.52,0.43,0.66,0.63c0.15,0.2,0.27,0.45,0.36,0.74c0.21,0.6,0.43,1.24,0.67,1.94
				s0.52,1.2,0.84,1.52h-2.86c-0.34-0.32-0.58-0.83-0.73-1.53c-0.15-0.7-0.31-1.32-0.49-1.87c-0.09-0.27-0.21-0.51-0.36-0.73
				c-0.15-0.22-0.29-0.33-0.41-0.33h-0.87v3.55c0,0.27-0.1,0.49-0.31,0.66s-0.45,0.25-0.73,0.25H130.79z M136.09,46.79
				c0-0.45-0.11-0.8-0.33-1.05c-0.22-0.25-0.48-0.38-0.79-0.38h-1.55v2.86h1.55c0.3,0,0.57-0.13,0.79-0.38
				C135.98,47.59,136.09,47.24,136.09,46.79z"/>
			<path class="st0" d="M153.97,47.02c0.04,0.62,0.06,1.26,0.06,1.94c0,0.68-0.02,1.33-0.06,1.98c-0.07,1.13-0.44,2.05-1.11,2.78
				c-0.67,0.72-1.62,1.08-2.85,1.08c-1.1,0-2.03-0.34-2.78-1.03c-0.75-0.69-1.16-1.64-1.22-2.84c-0.04-0.62-0.05-1.28-0.05-1.98
				c0-0.71,0.02-1.35,0.05-1.93c0.06-1.14,0.46-2.07,1.21-2.79s1.67-1.08,2.78-1.08c1.16,0,2.09,0.37,2.8,1.11
				C153.51,44.99,153.9,45.92,153.97,47.02z M151.38,50.65c0.03-0.54,0.05-1.15,0.06-1.83c0-0.68,0-1.22-0.02-1.61
				c-0.03-0.54-0.16-1.01-0.4-1.43s-0.58-0.62-1.01-0.62c-0.4,0-0.73,0.19-0.99,0.56c-0.26,0.37-0.41,0.87-0.44,1.5
				c-0.03,0.44-0.04,1.04-0.03,1.8c0,0.76,0.02,1.32,0.03,1.68c0.04,0.62,0.18,1.13,0.44,1.5c0.26,0.38,0.59,0.57,1,0.57
				c0.43,0,0.76-0.18,0.98-0.53C151.2,51.89,151.34,51.36,151.38,50.65z"/>
			<path class="st0" d="M165,48.34h4.5v1.74c0,1.65-0.35,2.84-1.04,3.58s-1.74,1.11-3.13,1.11c-1,0-1.86-0.31-2.57-0.94
				c-0.71-0.63-1.15-1.47-1.33-2.54c-0.1-0.62-0.17-1.37-0.2-2.26c-0.03-0.89,0.02-1.69,0.13-2.39c0.18-1.12,0.66-1.97,1.42-2.57
				s1.62-0.89,2.57-0.89c1.09,0,2.04,0.35,2.84,1.06c0.8,0.71,1.23,1.58,1.29,2.61h-2.65c-0.09-0.52-0.27-0.92-0.55-1.21
				c-0.28-0.29-0.58-0.43-0.9-0.43c-0.32,0-0.63,0.17-0.92,0.49c-0.29,0.33-0.48,0.85-0.55,1.56c-0.04,0.44-0.06,1.03-0.04,1.75
				s0.04,1.28,0.08,1.67c0.07,0.61,0.22,1.1,0.46,1.49c0.24,0.39,0.55,0.58,0.94,0.58c0.49,0,0.86-0.17,1.13-0.52
				c0.26-0.35,0.4-0.85,0.4-1.52v-0.46h-1.12c-0.25,0-0.44-0.06-0.57-0.17c-0.13-0.11-0.19-0.29-0.19-0.55V48.34z"/>
			<path class="st0" d="M179.63,45.36v2.52h4.03v1.34c0,0.25-0.06,0.43-0.19,0.55c-0.13,0.11-0.31,0.17-0.57,0.17h-3.28v2.63h4.72
				v1.13c0,0.29-0.08,0.52-0.23,0.67c-0.16,0.15-0.38,0.23-0.68,0.23h-5.54c-0.29,0-0.52-0.08-0.68-0.23
				c-0.16-0.15-0.23-0.38-0.23-0.67V43.33h7.36v1.31c0,0.25-0.06,0.43-0.19,0.55c-0.13,0.11-0.31,0.17-0.57,0.17H179.63z"/>
			<path class="st0" d="M197.83,54.59l-3.3-5.86c-0.02-0.04-0.05-0.15-0.09-0.31s-0.08-0.26-0.1-0.31c0.01,0.06,0.02,0.18,0.04,0.36
				c0.02,0.18,0.03,0.29,0.03,0.34v4.86c0,0.27-0.1,0.49-0.31,0.66s-0.45,0.25-0.73,0.25h-1.6V43.33h2.38l3.24,5.73
				c0.03,0.05,0.07,0.15,0.12,0.31c0.04,0.15,0.08,0.26,0.12,0.33c0-0.07-0.01-0.18-0.03-0.34c-0.02-0.16-0.03-0.26-0.03-0.33v-5.71
				h2.65v10.35c0,0.27-0.1,0.49-0.31,0.66s-0.45,0.25-0.73,0.25H197.83z"/>
			<path class="st0" d="M224.71,51.34c0,1.03-0.36,1.87-1.09,2.5c-0.73,0.64-1.7,0.96-2.92,0.96c-1.08,0-1.98-0.29-2.7-0.88
				c-0.73-0.58-1.09-1.39-1.09-2.42h2.73c0.04,0.45,0.17,0.78,0.37,0.98c0.2,0.2,0.48,0.31,0.83,0.31c0.4,0,0.71-0.13,0.95-0.39
				c0.23-0.26,0.35-0.59,0.35-1c0-0.42-0.09-0.75-0.27-0.96c-0.18-0.22-0.41-0.36-0.69-0.42l-1.23-0.27
				c-0.92-0.21-1.64-0.6-2.17-1.16c-0.53-0.57-0.79-1.24-0.79-2.01c0-0.98,0.34-1.8,1.02-2.46c0.68-0.66,1.63-0.99,2.85-0.99
				c0.95,0,1.77,0.29,2.49,0.87c0.71,0.58,1.09,1.31,1.14,2.19h-2.6c-0.08-0.37-0.22-0.65-0.43-0.82c-0.21-0.17-0.45-0.26-0.71-0.26
				c-0.37,0-0.67,0.12-0.88,0.36c-0.21,0.24-0.32,0.57-0.32,0.99c0,0.35,0.1,0.63,0.29,0.84c0.2,0.22,0.43,0.36,0.7,0.43l1.21,0.29
				c0.94,0.23,1.68,0.6,2.2,1.1C224.45,49.62,224.71,50.36,224.71,51.34z"/>
			<path class="st0" d="M234.38,54.34c-0.21,0.17-0.45,0.25-0.73,0.25h-1.6V43.33h2.64v4.9l3.02-4.9h2.96l-3.47,5.28l3.73,5.98
				h-2.89l-3.35-5.55v4.64C234.7,53.95,234.59,54.17,234.38,54.34z"/>
			<path class="st0" d="M247.67,43.33h2.64v10.35c0,0.27-0.1,0.49-0.31,0.66s-0.45,0.25-0.73,0.25h-1.6V43.33z"/>
			<path class="st0" d="M259.07,54.59c-0.29,0-0.52-0.08-0.68-0.23c-0.16-0.15-0.23-0.38-0.23-0.67V43.33h3.99
				c1.13,0,2.07,0.34,2.81,1.01c0.74,0.68,1.14,1.56,1.2,2.64c0.03,0.42,0.04,1.06,0.05,1.9s-0.01,1.51-0.05,2
				c-0.11,1.3-0.55,2.24-1.31,2.83c-0.76,0.58-1.66,0.88-2.71,0.88H259.07z M263.52,50.59c0.04-0.42,0.06-0.97,0.06-1.66
				c0-0.69-0.02-1.23-0.06-1.63c-0.03-0.48-0.18-0.93-0.45-1.33s-0.63-0.6-1.1-0.6h-1.17v7.2h1.17c0.38,0,0.72-0.17,1.01-0.5
				C263.27,51.73,263.45,51.24,263.52,50.59z"/>
			<path class="st0" d="M290.38,51.34c0,1.03-0.36,1.87-1.09,2.5c-0.73,0.64-1.7,0.96-2.92,0.96c-1.08,0-1.98-0.29-2.7-0.88
				c-0.73-0.58-1.09-1.39-1.09-2.42h2.73c0.04,0.45,0.17,0.78,0.37,0.98c0.2,0.2,0.48,0.31,0.83,0.31c0.4,0,0.71-0.13,0.95-0.39
				c0.23-0.26,0.35-0.59,0.35-1c0-0.42-0.09-0.75-0.27-0.96c-0.18-0.22-0.41-0.36-0.69-0.42l-1.23-0.27
				c-0.92-0.21-1.64-0.6-2.17-1.16c-0.53-0.57-0.79-1.24-0.79-2.01c0-0.98,0.34-1.8,1.02-2.46c0.68-0.66,1.63-0.99,2.85-0.99
				c0.95,0,1.77,0.29,2.49,0.87c0.71,0.58,1.09,1.31,1.14,2.19h-2.6c-0.08-0.37-0.22-0.65-0.43-0.82c-0.21-0.17-0.45-0.26-0.71-0.26
				c-0.37,0-0.67,0.12-0.88,0.36c-0.21,0.24-0.32,0.57-0.32,0.99c0,0.35,0.1,0.63,0.29,0.84c0.2,0.22,0.43,0.36,0.7,0.43l1.21,0.29
				c0.94,0.23,1.68,0.6,2.2,1.1C290.11,49.62,290.38,50.36,290.38,51.34z"/>
			<path class="st0" d="M299.63,54.59v-4.68l-3.06-6.58h2.76l1.43,3.45c0.04,0.09,0.08,0.19,0.1,0.31c0.03,0.12,0.06,0.23,0.09,0.33
				c0.03-0.09,0.07-0.21,0.1-0.33s0.07-0.23,0.1-0.32l1.38-3.43h2.77l-3.05,6.58v3.77c0,0.27-0.1,0.49-0.31,0.66
				s-0.45,0.25-0.73,0.25H299.63z"/>
			<path class="st0" d="M319.25,51.34c0,1.03-0.36,1.87-1.09,2.5c-0.73,0.64-1.7,0.96-2.92,0.96c-1.08,0-1.98-0.29-2.7-0.88
				c-0.73-0.58-1.09-1.39-1.09-2.42h2.73c0.04,0.45,0.17,0.78,0.37,0.98c0.2,0.2,0.48,0.31,0.83,0.31c0.4,0,0.71-0.13,0.95-0.39
				c0.23-0.26,0.35-0.59,0.35-1c0-0.42-0.09-0.75-0.27-0.96c-0.18-0.22-0.41-0.36-0.69-0.42l-1.23-0.27
				c-0.92-0.21-1.64-0.6-2.17-1.16c-0.53-0.57-0.79-1.24-0.79-2.01c0-0.98,0.34-1.8,1.02-2.46c0.68-0.66,1.63-0.99,2.85-0.99
				c0.95,0,1.77,0.29,2.49,0.87c0.71,0.58,1.09,1.31,1.14,2.19h-2.6c-0.08-0.37-0.22-0.65-0.43-0.82c-0.21-0.17-0.45-0.26-0.71-0.26
				c-0.37,0-0.67,0.12-0.88,0.36c-0.21,0.24-0.32,0.57-0.32,0.99c0,0.35,0.1,0.63,0.29,0.84c0.2,0.22,0.43,0.36,0.7,0.43l1.21,0.29
				c0.94,0.23,1.68,0.6,2.2,1.1C318.99,49.62,319.25,50.36,319.25,51.34z"/>
			<path class="st0" d="M328.49,54.59v-9.23h-1.92c-0.25,0-0.44-0.06-0.57-0.17s-0.19-0.29-0.19-0.55v-1.31h8v1.31
				c0,0.25-0.06,0.43-0.19,0.55s-0.31,0.17-0.57,0.17h-1.92v8.32c0,0.27-0.1,0.49-0.31,0.66s-0.45,0.25-0.73,0.25H328.49z"/>
			<path class="st0" d="M343.52,45.36v2.52h4.03v1.34c0,0.25-0.06,0.43-0.19,0.55c-0.13,0.11-0.31,0.17-0.57,0.17h-3.28v2.63h4.72
				v1.13c0,0.29-0.08,0.52-0.23,0.67c-0.16,0.15-0.38,0.23-0.68,0.23h-5.54c-0.29,0-0.52-0.08-0.68-0.23
				c-0.16-0.15-0.23-0.38-0.23-0.67V43.33h7.36v1.31c0,0.25-0.06,0.43-0.19,0.55c-0.13,0.11-0.31,0.17-0.57,0.17H343.52z"/>
			<path class="st0" d="M355.65,54.59V43.33h2.92l2.28,6.47l2.26-6.47h2.94v10.35c0,0.27-0.1,0.49-0.31,0.66s-0.45,0.25-0.73,0.25
				h-1.6v-5.3c0-0.04,0-0.14,0.01-0.31c0.01-0.16,0.01-0.27,0.01-0.32c-0.01,0.04-0.02,0.13-0.05,0.27s-0.04,0.24-0.06,0.29
				l-1.26,3.67c-0.07,0.22-0.18,0.38-0.34,0.5s-0.35,0.18-0.58,0.18h-1.26l-1.48-4.42c-0.02-0.06-0.04-0.17-0.06-0.31
				s-0.04-0.25-0.07-0.31c0.01,0.08,0.01,0.2,0.01,0.38v4.78c0,0.27-0.1,0.49-0.31,0.66s-0.45,0.25-0.73,0.25H355.65z"/>
		</g>
		<g class="st1">
			<path class="st2" d="M244.24,306.36c0,0.96-0.37,1.72-1.12,2.29c-0.7,0.53-1.59,0.8-2.67,0.8c-0.82,0-1.5-0.09-2.05-0.26
				c-0.63-0.2-1.19-0.55-1.67-1.03l1.54-1.54c0.24,0.24,0.55,0.41,0.94,0.52c0.39,0.11,0.81,0.16,1.25,0.16
				c0.94,0,1.41-0.29,1.41-0.88c0-0.25-0.06-0.44-0.19-0.58c-0.06-0.06-0.15-0.12-0.25-0.17c-0.1-0.05-0.23-0.08-0.4-0.1l-1.19-0.17
				c-0.87-0.13-1.53-0.42-1.98-0.88c-0.45-0.45-0.67-1.11-0.67-1.96c0-0.91,0.32-1.65,0.96-2.23c0.64-0.58,1.52-0.87,2.62-0.87
				c0.73,0,1.35,0.09,1.88,0.27c0.53,0.18,1,0.48,1.43,0.9l-1.52,1.52c-0.23-0.23-0.49-0.38-0.79-0.46c-0.3-0.08-0.6-0.12-0.89-0.12
				c-0.08,0-0.14,0-0.18,0c-0.4,0-0.69,0.09-0.89,0.27c-0.2,0.18-0.3,0.39-0.3,0.64c0,0.1,0.02,0.19,0.05,0.25
				c0.03,0.07,0.08,0.14,0.15,0.21c0.07,0.07,0.15,0.13,0.25,0.18c0.1,0.05,0.24,0.08,0.41,0.1l1.19,0.17
				c0.86,0.12,1.51,0.39,1.93,0.81c0.26,0.25,0.44,0.55,0.56,0.9C244.19,305.46,244.24,305.88,244.24,306.36z"/>
			<path class="st2" d="M261.12,302.71c0,0.85-0.28,1.58-0.85,2.18c-0.63,0.65-1.46,0.98-2.49,0.98h-1.47v3.5h-2.41v-9.81h3.89
				c1.05,0,1.88,0.32,2.49,0.96C260.84,301.11,261.12,301.84,261.12,302.71z M258.71,302.71c0-0.27-0.09-0.5-0.28-0.7
				c-0.19-0.2-0.44-0.3-0.76-0.3h-1.36v1.99h1.36c0.32,0,0.58-0.1,0.76-0.3C258.62,303.2,258.71,302.97,258.71,302.71z"/>
			<path class="st2" d="M277.26,309.36h-6.67v-9.81h6.67v2.15H273v1.64h3.64v2.15H273v1.72h4.26V309.36z"/>
			<path class="st2" d="M293.7,309.36h-6.67v-9.81h6.67v2.15h-4.26v1.64h3.64v2.15h-3.64v1.72h4.26V309.36z"/>
			<path class="st2" d="M310.78,304.46v0.72c0,0.77-0.05,1.34-0.14,1.71c-0.14,0.56-0.43,1.07-0.88,1.52
				c-0.32,0.32-0.71,0.56-1.17,0.72c-0.46,0.16-0.95,0.24-1.47,0.24h-3.64v-9.81h3.64c0.54,0,1.04,0.08,1.48,0.23
				c0.45,0.16,0.84,0.4,1.17,0.74c0.34,0.34,0.59,0.72,0.76,1.16c0.17,0.44,0.26,1.13,0.26,2.07V304.46z M308.36,304.46
				c0-0.8-0.02-1.33-0.06-1.59c-0.04-0.26-0.11-0.48-0.22-0.64c-0.11-0.17-0.25-0.29-0.43-0.39c-0.18-0.09-0.42-0.14-0.71-0.14
				h-1.06v5.51h1.06c0.29,0,0.52-0.05,0.7-0.14c0.18-0.1,0.33-0.23,0.45-0.39c0.11-0.17,0.19-0.37,0.22-0.63
				C308.35,305.8,308.36,305.27,308.36,304.46z"/>
			<path class="st2" d="M338.75,306.25c-0.17,1.05-0.61,1.85-1.3,2.41c-0.64,0.52-1.45,0.79-2.43,0.79c-1.08,0-1.99-0.37-2.73-1.1
				c-0.46-0.46-0.75-1.05-0.88-1.78c-0.07-0.4-0.11-1.11-0.11-2.11c0-1.05,0.03-1.75,0.1-2.11c0.13-0.72,0.43-1.31,0.9-1.78
				c0.36-0.36,0.76-0.63,1.22-0.82c0.45-0.19,0.96-0.28,1.51-0.28c0.96,0,1.77,0.26,2.43,0.79c0.69,0.56,1.12,1.36,1.3,2.41h-2.45
				c-0.09-0.33-0.22-0.57-0.37-0.73c-0.21-0.21-0.5-0.32-0.88-0.32c-0.22,0-0.41,0.03-0.57,0.1c-0.16,0.07-0.29,0.18-0.4,0.32
				c-0.11,0.15-0.2,0.38-0.26,0.71c-0.06,0.33-0.1,0.89-0.1,1.7c0,0.84,0.03,1.4,0.08,1.7c0.06,0.3,0.15,0.54,0.29,0.72
				c0.21,0.28,0.53,0.41,0.95,0.41c0.37,0,0.66-0.11,0.87-0.32c0.17-0.17,0.29-0.41,0.39-0.73H338.75z"/>
			<path class="st2" d="M355.47,309.36h-2.41v-3.89h-2.56v3.89h-2.41v-9.81h2.41v3.78h2.56v-3.78h2.41V309.36z"/>
			<path class="st2" d="M367.92,309.36h-2.41v-9.81h2.41V309.36z"/>
			<path class="st2" d="M384.5,309.36h-6.53v-9.81h2.41v7.66h4.12V309.36z"/>
			<path class="st2" d="M400.5,309.36h-6.53v-9.81h2.41v7.66h4.12V309.36z"/>
			<path class="st2" d="M416.64,309.36h-6.67v-9.81h6.67v2.15h-4.26v1.64h3.64v2.15h-3.64v1.72h4.26V309.36z"/>
			<path class="st2" d="M434.17,309.36h-2.8l-1.74-3.65h-0.81v3.65h-2.41v-9.81h3.89c1.05,0,1.88,0.32,2.5,0.96
				c0.57,0.6,0.85,1.33,0.85,2.19c0,0.62-0.17,1.16-0.51,1.64c-0.29,0.4-0.65,0.7-1.09,0.92L434.17,309.36z M431.24,302.71
				c0-0.27-0.1-0.5-0.28-0.7c-0.19-0.2-0.44-0.3-0.77-0.3h-1.36v1.99h1.36c0.32,0,0.58-0.1,0.77-0.3
				C431.14,303.2,431.24,302.97,431.24,302.71z"/>
		</g>
	</g>
	<g>
		<path class="st0" d="M41.64,40.22c-0.69-1.86-1.95-3.98-3.79-6.35l-17.87-23c-1.01-1.3-1.73-2.4-2.16-3.29
			c-0.43-0.89-0.64-1.72-0.64-2.49c0-0.67,0.12-1.31,0.4-1.9C18.32,1.63,19.17,1,19.09,1c-1.8,0-2.9,0.05-3.62,0.05
			c-4.1,0-7.48,1.32-10.15,3.95c-2.66,2.64-3.99,5.93-3.99,9.86c0,2.32,0.35,4.41,1.04,6.27c0.69,1.86,1.95,3.98,3.79,6.35
			l17.97,23.14c0.96,1.24,1.64,2.3,2.05,3.16c0.43,0.89,0.64,1.72,0.64,2.49c0,0.67-0.12,1.31-0.4,1.9c-0.74,1.56-1.59,2.2-1.5,2.2
			c1.8,0,2.9-0.07,3.62-0.07c4.1,0,7.48-1.32,10.15-3.95c2.66-2.64,3.99-5.93,3.99-9.86C42.68,44.18,42.33,42.09,41.64,40.22z"/>
		<linearGradient id="SVGID_1_" gradientUnits="userSpaceOnUse" x1="8.2635" y1="49.1958" x2="23.3083" y2="42.9706">
			<stop  offset="0" style="stop-color:#324793"/>
			<stop  offset="1" style="stop-color:#000008"/>
		</linearGradient>
		<path class="st3" d="M24.07,59.37c0.21-0.22,0.71-0.74,1.17-1.72c0.18-0.39,0.27-0.83,0.27-1.34c0-0.57-0.17-1.22-0.51-1.93
			c-0.37-0.77-1.01-1.75-1.91-2.92L8.46,32.6c-0.41-0.53-1.21-0.51-1.61,0.02c-3.21,4.27-4.21,6.05-4.8,7.63
			C1.35,42.12,1,44.21,1,46.53c0,3.93,1.33,7.22,3.99,9.86c2.66,2.63,6.05,4,10.15,4c0.5,0,4.68-0.01,7.75,0
			c0.38,0,0.7-0.24,0.87-0.59C23.83,59.66,23.93,59.52,24.07,59.37z"/>
		<path class="st0" d="M52.83,1h-2.68c-0.56,0-1.01,0.45-1.01,1.01v20.78v15.69c0,12.24-4.54,17.66-8.28,20.04
			c-0.84,0.54-0.44,1.85,0.56,1.85h11.39c3.88,0,17.25-0.4,17.25-16.97c0-1.81,0-2.91,0-3.55v-0.83v-2.95V25.3v-2.96
			c0-0.01,0-0.23,0-0.82c0-0.65,0-1.74,0-3.55C70.07,1.4,56.7,1,52.83,1z"/>
		<path class="st0" d="M38.87,23.62L22.61,2.63C22.1,1.97,22.57,1,23.41,1h16.25c0.56,0,1.01,0.45,1.01,1.01V23
			C40.68,23.96,39.46,24.38,38.87,23.62z"/>
	</g>
</g>
<g id="Layer_1_copy">
	<text transform="matrix(1 0 0 1 950.1448 316.8618)" class="st1"><tspan x="0" y="0" class="st2" style="font-family:'TheJamsilOTF6ExtraBold'; font-size:21px;">HYDROGEN</tspan><tspan x="0" y="25.2" class="st2" style="font-family:'TheJamsilOTF6ExtraBold'; font-size:21px;">SKID</tspan><tspan x="0" y="50.4" class="st2" style="font-family:'TheJamsilOTF6ExtraBold'; font-size:21px;">SYSTEM</tspan></text>
	
		<text transform="matrix(1 0 0 1 700.5969 534.8619)" style="display:none;fill:#374EA1; font-family:'TheJamsilOTF6ExtraBold'; font-size:36px; letter-spacing:3;">H2 SAMJUNG</text>
</g>
</svg>
